<svg xmlns="http://www.w3.org/2000/svg" viewBox="0 0 64 64">
	<defs>
		<linearGradient id="copper" x1="0" y1="0" x2="0" y2="1">
			<stop offset="0%" stop-color="#ffd8a8"/>
			<stop offset="45%" stop-color="#e8965a"/>
			<stop offset="80%" stop-color="#b87333"/>
			<stop offset="100%" stop-color="#8b5a1a"/>
		</linearGradient>
		<linearGradient id="slate" x1="0" y1="0" x2="0" y2="1">
			<stop offset="0%" stop-color="#24282e"/>
			<stop offset="100%" stop-color="#14171d"/>
		</linearGradient>
	</defs>

	<rect width="64" height="64" rx="12" fill="url(#slate)"/>

	<rect x="0" y="0" width="64" height="2" fill="#b87333" opacity="0.65"/>

	<path d="M 8 24 C 8 18 14 16 22 16 L 42 16 C 50 16 56 18 56 24 L 56 36 C 56 42 50 44 44 44 L 40 44 C 36 44 34 41 32 38 C 30 41 28 44 24 44 L 20 44 C 14 44 8 42 8 36 Z" fill="url(#copper)"/>

	<ellipse cx="22" cy="30" rx="5" ry="4" fill="#0e1015"/>
	<ellipse cx="42" cy="30" rx="5" ry="4" fill="#0e1015"/>
</svg>
